<svg enable-background="new 0 0 144 32" height="16.099052" viewBox="0 0 70.028688 16.099053" width="70.028687" xmlns="http://www.w3.org/2000/svg"><g stroke-width=".5985"><g fill="#fff"><path d="m33.002487 12.629547c0-3.8214229-5.239864-3.7418219-5.239864-4.7149829 0-.231021.270522-.511119 1.079694-.511119 1.287972 0 1.925973.451867 2.707012.870219l1.269422-2.6447718c-.86723-.731367-2.176146-1.2777975-4.026708-1.2777975-2.276694 0-4.525857 1.106028-4.525857 3.4784823v-.01197c0 3.5676579 5.241061 3.7418219 5.241061 4.7149829 0 .231021-.32977.511119-1.080891.511119-1.201186 0-2.209662-.581144-2.894346-1.128173l-1.617147 2.535845c.866033.730768 2.395197 1.645276 4.561172 1.645276 2.559781 0 4.525857-1.459143 4.525857-3.47908v.01197z"/><path d="m18.21176 4.3528903c-3.516191 0-6.363854 2.3443248-6.363854 5.8724817 0 3.525764 2.847663 5.871285 6.363854 5.871285 3.516184 0 6.365044-2.345521 6.365044-5.871285 0-3.5281569-2.84886-5.8724817-6.365044-5.8724817m0 8.6088237c-1.40049 0-2.536443-1.092861-2.536443-2.735743 0-1.6452769 1.135953-2.7381379 2.536443-2.7381379 1.401687 0 2.536443 1.092861 2.536443 2.7381379.000595 1.642882-1.134756 2.735743-2.536443 2.735743"/><path d="m6.800759 4.3481023c-1.231118 0-2.256345.465633-3.054744 1.1880225v-5.2703908h-3.746015v8.0671811.254961 7.2334709h3.508407v-.998298c.743337.744534 1.796697 1.276003 3.29175 1.276003 2.786616 0 5.047749-2.351507 5.047749-5.875474.000602-3.7346405-2.260531-5.875475-5.047147-5.875475m-.948626 8.616605c-1.450162 0-2.19709-1.211964-2.19709-2.707614 0-1.4956519.731962-2.7082129 2.19709-2.7082129 1.451366 0 2.197692 1.212561 2.197692 2.7082129 0 1.49565-.746326 2.707614-2.197692 2.707614"/><path d="m33.002487 12.602614c0-1.896048 1.303533-2.7465159 2.739338-3.2169369 1.846369-.604485 3.930346-.549423 3.930346-.549423s.0096-.580544-.209475-.903734c-.212464-.317804-.785232-.53087-1.290366-.53087-1.380141 0-2.418535.635607-3.200778 1.053958l-1.293957-2.6393846c.883988-.6589485 2.629214-1.4681205 4.7096-1.4681205 3.388707 0 5.049541 1.9576935 5.049541 4.6060551v6.8671889h-3.425814v-1.346624s-.86842 1.624329-3.218733 1.624329c-2.192904-.000599-3.789702-1.570464-3.789702-3.496437m3.790304-.305235c0 .557802.393813.923485 1.040788.923485.840294 0 1.963682-.89356 1.862532-2.218041.000602 0-2.90332-.16339-2.90332 1.294556"/></g><path d="m56.501991 8.8595951h4.549797c-.264537-1.730263-1.222739-2.077992-2.271311-2.077992-.298053 0-1.839187.114912-2.278486 2.077992" fill="#80c41c"/><path d="m67.721472 4.3439128v-3.5933938h-3.398283v3.5933938h-1.985823v.9510165c1.459738 1.0647315 2.062431 2.8931488 2.062431 4.8059547 0 .246582-.0014.798399 0 1.060542h-2.208465-.689472-4.987899c.323785 1.319094 1.24488 2.120486 2.678284 2.120486 1.016855 0 1.780541-.560196 2.318589-1.330466l2.371257 1.738643c-.711018.919296-2.040885 1.931959-4.097331 2.130061h4.539024 3.398283v-8.1156599h2.306619v-3.3605773z" fill="#80c41c"/><path d="m53.157573 10.100884c0-1.1168009.302246-2.1587889.842688-3.0415769-.827127-1.6183438-2.525068-2.7153943-4.986702-2.7153943-3.595788 0-5.576221 2.3395363-5.576221 5.2267003v6.2495369h3.380328v-6.0334779c0-1.159295.645778-2.098341 2.195893-2.098341s2.196495.939046 2.196495 2.098341v6.0340769h3.366566 3.790892c-2.832697-.301046-5.209939-2.462229-5.209939-5.719865" fill="#80c41c"/><path d="m24.366132 4.0650125-2.289861-4.0650125-.739746 1.249668c-.750519-.2471805-1.527967-.404586-2.320983-.46683-.603883-.046683-1.210167-.038304-1.809864.02394-.361494.038304-.719397.09576-1.075501.1729665-.960596.2100735-1.881089.560196-2.735145 1.040193-.882791.4973535-1.682982 1.128173-2.380238 1.875101l1.316105 1.2269243c1.128169-1.2089693 2.574145-2.0331038 4.182318-2.383227.775054-.168777 1.569862-.2238388 2.362276-.161595.514115.040103 1.021643.1346625 1.514807.2705227l-.690074 1.1688705z" fill="#80c41c"/></g></svg>